<?xml version="1.0" encoding="UTF-8"?>
<svg version="1.1" viewBox="0 0 2048 877" width="763" height="327" xmlns="http://www.w3.org/2000/svg">
<path transform="translate(977,76)" d="m0 0h91l49 1 78 4 55 4 68 7 53 7 58 9 49 9 60 13 60 15 44 13 49 16 35 13 36 15 20 9 28 13 28 15 25 15 18 12 14 10 14 11 11 9 12 11 20 20 11 14 12 17 9 16 7 15 6 18 4 19 1 10v19l-2 17-4 17-8 22-10 19-12 18-13 16-11 12-14 14-8 7-13 11-18 13-17 12-26 16-18 10-23 12-29 14-43 18-29 11-37 13-32 10-42 12-60 15-62 13-56 10-60 9-57 7-63 6-55 4-61 3-43 1h-105l-42-1-75-4-63-5-57-6-62-8-50-8-58-11-51-11-52-13-42-12-50-16-41-15-41-17-26-12-19-9-22-12-21-12-19-12-22-15-18-14-15-13-16-15-7-8-9-10-12-16-11-18-10-21-6-18-4-20-1-13v-12l2-18 5-21 10-25 9-16 11-16 8-10 12-14 19-19 11-9 12-10 18-13 15-10 19-12 23-13 27-14 27-13 40-17 29-11 50-17 39-12 45-12 46-11 48-10 48-9 57-9 62-8 59-6 54-4 79-4z" fill="#FCFCFC"/>
<path transform="translate(297,252)" d="m0 0 15 1 13 4 15 8 15 11 13 11 14 12 11 11 8 7 13 12 13 10 15 10 23 12 22 8 16 4 12 2 12 1h15l11-1 54-1 823-5h195l15-2 14-7 12-11 10-9 11-11 14-10 12-5 10-2h16l16 3 15 6 13 7 9 7 10 9 10 11 11 17 10 21 6 18 5 22 2 16 1 23-2 16-4 12-6 11-7 9-4 5-8 5-16 5-7 1h-12l-15-3-12-5-15-9-13-10-10-9-10-12-9-16-4-13-2-6-5 13-6 8-8 7-10 3-18 2-49 2h-247l-56 1-224 3-87 1-56 1-163 2-51 1-167 2-36 1-28 6-23 7-17 8-8 7-9 14-9 17-9 12-10 11-12 9-10 6-16 6-15 4-7 1h-25l-39-7-41-9-30-8-16-6-8-6v-8l4-6 9-6 90-32 20-7h2l1-33 1-23v-20l-11-13-8-10-11-13-18-22-10-13h3l7 7 7 8 9 10 7 8 11 12 9 11 5 4 5-7-11-14-14-17-13-16-9-11-12-15-10 2-53 16-29 9-8 8-14 16-3 1-2-5v-9l3-12 8-16 7-11 11-13 7-8 20-20 14-11 17-12 17-10 19-8 26-8 9-2z" fill="#010000"/>
<path transform="translate(977,76)" d="m0 0h91l49 1 78 4 55 4 68 7 53 7 58 9 49 9 60 13 60 15 44 13 49 16 35 13 36 15 20 9 28 13 28 15 25 15 18 12 14 10 14 11 11 9 12 11 20 20 11 14 12 17 9 16 7 15 6 18 4 19 1 10v19l-2 17-4 17-8 22-10 19-12 18-13 16-11 12-14 14-8 7-13 11-18 13-17 12-26 16-18 10-23 12-29 14-43 18-29 11-37 13-32 10-42 12-60 15-62 13-56 10-60 9-57 7-63 6-55 4-61 3-43 1h-105l-42-1-75-4-63-5-57-6-62-8-50-8-58-11-51-11-52-13-42-12-50-16-41-15-41-17-26-12-19-9-22-12-21-12-19-12-22-15-18-14-15-13-16-15-7-8-9-10-12-16-11-18-10-21-6-18-4-20-1-13v-12l2-18 5-21 10-25 9-16 11-16 8-10 12-14 19-19 11-9 12-10 18-13 15-10 19-12 23-13 27-14 27-13 40-17 29-11 50-17 39-12 45-12 46-11 48-10 48-9 57-9 62-8 59-6 54-4 79-4zm3 11-64 2-57 3-63 5-57 6-54 7-46 7-51 9-58 12-41 10-42 11-37 11-43 14-35 13-34 14-29 13-17 8-19 10-25 14-22 14-20 14-13 10-11 9-10 9-13 12-12 13-12 15-10 15-12 23-8 24-3 16v33l5 23 8 21 9 17 8 12 9 12 12 14 23 23 11 9 15 12 20 14 22 14 21 12 28 15 34 16 41 17 35 13 38 13 40 12 41 11 36 9 61 13 50 9 44 7 61 8 55 6 60 5 50 3 52 2h150l68-3 57-4 65-6 58-7 48-7 48-8 65-13 55-13 45-12 43-13 44-15 34-13 31-13 28-13 28-14 23-13 24-15 20-14 13-10 11-9 24-22 11-12 9-11 12-17 12-22 8-22 4-20 1-8v-19l-3-20-6-20-7-16-10-18-14-19-9-10-7-8-13-13-8-7-13-11-19-14-27-18-20-12-22-12-25-13-36-16-29-12-41-15-49-16-50-14-52-13-57-12-43-8-57-9-52-7-66-7-65-5-57-3-68-2z" fill="#080606"/>
<path transform="translate(805,156)" d="m0 0h24l33 2 19 3 21 6 14 7 10 9 6 9 3 8 1 14-2 14-2 3-80 1h-4l-1-7-6-3-16-2h-61l-10 2-3 1v6l12 2 70 3 32 3 25 5 12 4 10 5 9 9 5 10 1 5v12l-5 19-8 16-7 9-9 9-10 7-16 8-15 5-17 4-21 3-28 2h-53l-27-2-19-3-15-4-14-6-12-9-7-11-3-11v-17l3-15 85-1 1 2-1 4 5 5 10 3 21 2h43l22-2 7-3 1-6-5-2-21-2-48-2-34-3-26-5-15-5-11-6-5-4-7-10-2-6-1-14 3-16 5-12 7-11 11-11 15-10 19-8 18-5 23-4 18-2z" fill="#E45E0D"/>
<path transform="translate(966,159)" d="m0 0h179l16 2 14 5 10 6 8 7 7 11 4 10 2 10v12l-2 13-4 14-8 16-9 13-10 11-14 11-12 7-15 6-15 4-22 2h-87l-2 10-9 34-2 3h-84l2-11 20-75 13-48 19-71z" fill="#E45E0D"/>
<path transform="translate(1226,159)" d="m0 0h270l-1 9-15 55-2 4-92 1-19 70-17 64-2 4h-84l1-8 17-64 14-52 4-15h-92l1-7 15-56z" fill="#E45E0D"/>
<path transform="translate(1e3 580)" d="m0 0h135l85 2 85 4 82 5 87 7 72 7 71 8 77 10 83 12 21 4v1l-20-1-80-8-96-8-119-8-51-3-110-5-98-3-46-1h-231l-80 2-64 2-106 5-87 5-94 7-104 9-76 8h-6l3-2 34-6 49-7 66-9 85-10 91-9 60-5 71-5 79-4 41-2z" fill="#E45E0D"/>
<path transform="translate(269,267)" d="m0 0h34l29 4 7 3 14 10 10 9 8 7 12 12 9 11 10 13 10 16 8 15 7 19 5 20 4 27 1 9v35l-4 25-5 18-7 16-9 14-10 13-9 9-10 7-13 6-17 4-9 1h-10l-19-2-36-7-35-9-16-5 4-1 38 6 29 3 27 1 16-1 11-3 12-6 14-9 10-8 8-7 9-12 6-10 7-19 3-15 1-11v-27l-2-19-5-23-5-19v-5h-2l-1 3-4-2-14-27-10-17-12-17-13-16-9-10-11-7-14-6-17-3h-20l-18 3-20 6-21 10-16 10-16 13-12 11-9 10-12 16h-3l-1-1v-9l3-10 9-13 14-15 14-12 17-12 18-10 16-6 14-3z" fill="#FDFDFD"/>
<path transform="translate(1706,376)" d="m0 0h23l12 4 9 6 9 8 11 15 12 22 8 17 4 15v15l-4 20-4 13-3 1-14-5-13-8-13-11-10-11-10-15-8-15-5-13-4-15-2-14v-25z" fill="#FDFDFD"/>
<path transform="translate(805,156)" d="m0 0h24l33 2 19 3 21 6 14 7 10 9 6 9 3 8 1 14-2 14-2 3-80 1h-4l-1-7-6-3-16-2h-61l-10 2-3 1v6l12 2 70 3 32 3 25 5 12 4 10 5 9 9 5 10 1 5v12l-5 19-8 16-7 9-9 9-10 7-16 8-15 5-17 4-21 3-28 2h-53l-27-2-19-3-15-4-14-6-12-9-7-11-3-11v-17l3-15 85-1 1 2-1 4 5 5 10 3 21 2h43l22-2 7-3 1-6-5-2-21-2-48-2-34-3-26-5-15-5-11-6-5-4-7-10-2-6-1-14 3-16 5-12 7-11 11-11 15-10 19-8 18-5 23-4 18-2zm0 4-22 1-26 3-23 5-21 7-12 6-11 8-10 10-8 16-4 15v16l4 9 6 8 11 7 13 5 23 5 25 3 34 2 43 2 12 2 4 4-1 6-4 5-9 3-20 2h-47l-19-2-11-3-6-2-1-8-2-1h-74l-2 2-2 13v11l2 9 6 10 5 6 11 7 13 5 16 4 24 3 15 1h57l35-3 25-5 18-6 17-9 11-9 9-11 8-16 4-12 1-7v-11l-3-10-6-8-9-6-12-5-21-5-26-3-34-2-32-1-25-2-7-2-1-6 2-5 6-3 10-2h61l20 3 6 2 2 7h74l3-2 1-5v-18l-5-12-9-10-9-6-11-5-18-5-19-3-30-2z" fill="#070505"/>
<path transform="translate(1738,339)" d="m0 0h9l9 2 2 2-14 12-10 8-2 2 4 1h8l24-16 5-1 17 11-1 3-31 19-3 2 11 11 9-3 14-7 15-9 4 2 9 12-4 4-29 19-4 1 3 7 5 10v2l11-6 23-15 6-3 6 17v5l-16 10-15 10-2 1v12l6-2 31-16h1l1 6v17l-15 7-20 9h-2l-3 9-2 4 10-3 5-1 6 1 6-2 3-4 6-3-2 4-7 8-9 6-12 5-10 3h-9l6-22 2-12v-15l-5-18-12-24-11-18-11-13-11-8-10-4-4-1-23-1 1-7 7-13 9-10 8-5z" fill="#343435"/>
<path transform="translate(1226,159)" d="m0 0h270l-1 9-15 55-2 4-92 1-19 70-17 64-2 4h-84l1-8 17-64 14-52 4-15h-92l1-7 15-56zm4 4-2 2-15 55 1 3h92l-7 23-22 83-8 29v4h75l2-2 15-57 19-70 2-6v-4h93l3-9 13-50-1-1z" fill="#0A0808"/>
<path transform="translate(966,159)" d="m0 0h179l16 2 14 5 10 6 8 7 7 11 4 10 2 10v12l-2 13-4 14-8 16-9 13-10 11-14 11-12 7-15 6-15 4-22 2h-87l-2 10-9 34-2 3h-84l2-11 20-75 13-48 19-71zm4 4-3 7-19 71-17 63-15 56 1 2h75l3-9 10-37v-2l27 1h71l16-2 16-5 12-5 15-10 10-9 7-7 9-13 7-14 5-17 1-5v-20l-4-13-7-12-7-7-12-7-16-5-8-1z" fill="#090808"/>
<path transform="translate(1490,523)" d="m0 0h48l7 2 6 5 3 6v12l-4 9-5 6-9 5-7 2h-47l1-11 6-35z" fill="#040202"/>
<path transform="translate(1641,502)" d="m0 0h12l27 4 24 6 11 4 12 7 16 13 14 10 8 4 5 1h13l-2 2-15 5-10 2h-25l-11-4-22-14-24-16-19-13-14-10z" fill="#030202"/>
<path transform="translate(1023,523)" d="m0 0h52l8 4 4 7v8l-4 8-8 6 2 6 4 6v2h-20l-6-9-1-2h-18l-2 11h-19l1-12 6-34z" fill="#040202"/>
<path transform="translate(1342,523)" d="m0 0h53l8 4 4 7v7l-4 8-7 6-2 2 7 11-1 2h-19l-8-11h-17l-2 9-1 2h-18l-1-2z" fill="#030202"/>
<path transform="translate(714,523)" d="m0 0h53l8 4 3 4 1 3v7l-3 7-5 5-4 3 1 4 5 9-1 1h-18l-4-4-4-7-18-1-2 12h-18l-1-1 1-11z" fill="#030202"/>
<path transform="translate(577,523)" d="m0 0h53l8 4 4 7v8l-4 7-5 5-8 4-10 1h-14l-10-1-2 11-1 1h-18l-1-2z" fill="#040202"/>
<path transform="translate(885,523)" d="m0 0h53l6 3 5 6 1 9-3 7-7 7-7 3-34 1-2 10-1 1h-18l-1-2z" fill="#030202"/>
<path transform="translate(1187,522)" d="m0 0h20l11 2 6 3 5 8-1 3h-20l-6-3h-15l-5 2-1 3 22 1 16 3 5 3 2 4-1 6-4 6-6 4-11 3-16 1-15-1-11-4-5-8v-4h20l4 3 5 1h10l8-3v-2l-31-3-9-3-4-5 1-7 4-6 10-5z" fill="#040303"/>
<path transform="translate(528,522)" d="m0 0h22l12 3 7 6v7h-20l-5-3h-16l-5 2-1 3 22 1 16 3 6 4 1 7-3 6-6 5-13 4h-31l-9-3-6-7v-6h19l5 3 5 1h8l8-2 1-3-7-1-17-1-10-2-8-4-1-2v-8l6-7 9-4z" fill="#040202"/>
<path transform="translate(1564,523)" d="m0 0h58l-1 10-1 2h-39v6h38l-1 10-4 1h-35l-1 5h38l-1 11-2 2h-56l-1-5 6-35z" fill="#050403"/>
<path transform="translate(788,523)" d="m0 0h59l-2 11-1 1h-39v6h39l-2 10-3 1h-36l-1 5h39l-2 11-1 2h-57l-1-3z" fill="#050404"/>
<path transform="translate(971,523)" d="m0 0h23l6 12 12 31 1 3-1 1h-20l-2-1-1-7h-25l-6 8h-21l2-5 29-38z" fill="#040303"/>
<path transform="translate(663,523)" d="m0 0h24l14 35 4 11-1 1h-20l-2-2-1-5-25-1-6 8h-21l2-5 13-17 10-13z" fill="#050303"/>
<path transform="translate(1437,523)" d="m0 0h24l4 8 14 35v4h-20l-2-1-2-6-26-1-2 5-3 3h-12l-8-1 2-4 9-12 16-21z" fill="#040302"/>
<path transform="translate(1033,227)" d="m0 0h80l5 3v10l-5 8-7 3h-79l1-7 4-16z" fill="#FDFDFD"/>
<path transform="translate(831,696)" d="m0 0h15l3 9 2 12h2l2-6 8-14 3-1h14l2 6 3 15 2-3 10-17 4-1h13l-5 9-15 23-2 3h-18l-3-9-1-7h-3l-1 4-7 11-1 1h-18l-9-31z" fill="#050303"/>
<path transform="translate(745,696)" d="m0 0h16l3 9 2 12h2l2-6 8-14 8-1h9l4 14 1 6 2 1 2-6 8-14 16-1-1 4-10 16-10 15h-18l-4-12v-4l-4 4-8 12h-17l-3-7-8-27z" fill="#040303"/>
<path transform="translate(671,696)" d="m0 0h5l3 9 2 12h2l2-6 8-14 7-1h10l2 6 3 14 4-5 8-14 16-1v3l-17 26-4 6h-18l-4-13v-3l-4 4-7 11-1 1h-17l-4-10-7-24z" fill="#040302"/>
<path transform="translate(1203,696)" d="m0 0h32l8 2 5 4 2 4v8l-3 8-8 7-5 2h-38l4-27z" fill="#040303"/>
<path transform="translate(1270,523)" d="m0 0h66l-3 15-23 1-5 29-1 2h-18l-1-5 5-27h-22l-1-2 2-12z" fill="#040303"/>
<path transform="translate(1093,523)" d="m0 0h66l-2 14-1 1h-23l-2 15-3 16-1 1h-18l-1-3 5-28-22-1 1-13z" fill="#040303"/>
<path transform="translate(1518,161)" d="m0 0h11l9 2 8 5 4 8v7l-3 7-6 5-6 2-7 1h-9l-9-2-8-5-3-5v-12l4-7 10-5z" fill="#FDFDFD"/>
<path transform="translate(1093,696)" d="m0 0h36l6 2 5 6v7l-4 7-5 3 2 5 3 5h-16l-4-7h-14l-1 7h-15l3-21 3-13z" fill="#060404"/>
<path transform="translate(1260,696)" d="m0 0h32l9 1-1 8-1 1h-29l1 3 28 1-1 7-1 1h-29v3l28 1 1 3 1-4h14l-1 10h-60l6-34z" fill="#070404"/>
<path transform="translate(987,696)" d="m0 0h35l7 2 4 5 1 6-4 8-7 5-6 1h-21l-2 8h-14l1-11 4-23z" fill="#080505"/>
<path transform="translate(944,696)" d="m0 0h25l7 3 3 3 1 5-1 1-16-1-6-2-10 1-3 3 20 1 11 3 3 3-1 7-7 6-6 2-7 1h-14l-10-2-5-4-1-6h15l4 2h11l4-1v-2l-22-2-9-4-1-7 3-5 8-4z" fill="#050404"/>
<path transform="translate(1332,696)" d="m0 0h22l9 4 3 4v7h-14l-3-3h-15l-3 3-1 6 1 2 3 1h10l6-3h15l-2 6-6 5-8 3-6 1h-12l-8-2-5-3-4-6 1-10 4-8 9-6z" fill="#060403"/>
<path transform="translate(1169,696)" d="m0 0h11l3 4 11 28 1 3h-17l-2-5-19-1-2 5-1 1h-16l4-7 12-15 9-12z" fill="#030202"/>
<path transform="translate(1039,696)" d="m0 0h45l3 1-1 9-1 1-16 1-1 1-4 22h-15l3-19v-4l-16-1 2-10z" fill="#060404"/>
<path transform="translate(1029,223)" d="m0 0h86l6 3 2 3v7l-4 11-7 6-3 1-86 1-2-1 4-17zm4 4-3 9-3 11v4h79l8-4 4-7v-10l-5-3z" fill="#020101"/>
<path transform="translate(1375,696)" d="m0 0h12l-1 13-2 11h29l-2 10-1 1h-43l2-13 3-17 1-4z" fill="#050404"/>
<path transform="translate(1518,161)" d="m0 0h11l9 2 8 5 4 8v7l-3 7-6 5-6 2-7 1h-9l-9-2-8-5-3-5v-12l4-7 10-5zm-2 5-9 4-3 5v9l3 5 8 4h18l8-4 3-4v-11l-4-5-8-3z" fill="#090808"/>
<path transform="translate(1507,538)" d="m0 0h24l4 4-1 7-4 5-4 1h-21l-1-1 1-10z" fill="#FDFDFD"/>
<path transform="translate(1512,171)" d="m0 0h20l4 2 1 7-2 3v5h-6l-3-3-7-1-1 5-6-1-1-1v-15z" fill="#060404"/>
<path transform="translate(1215,707)" d="m0 0h16l4 2v7l-4 4h-18v-7z" fill="#FDFDFD"/>
<path transform="translate(902,537)" d="m0 0h28l-1 6-2 2h-25l-1-4z" fill="#FDFDFD"/>
<path transform="translate(594,537)" d="m0 0h28l-1 6-2 2h-25l-1-3z" fill="#FDFDFD"/>
<path transform="translate(1040,537)" d="m0 0h27l-1 7-3 1h-24l-1-3z" fill="#FDFDFD"/>
<path transform="translate(1359,537)" d="m0 0h28l-1 6-3 2h-23l-2-1z" fill="#FDFDFD"/>
<path transform="translate(732,537)" d="m0 0h27l-1 7-3 1h-23l-1-1v-6z" fill="#FDFDFD"/>
<path transform="translate(1748,384)" d="m0 0 6 2 5 4 8 10 9 14 5 12 5 9 1 4h-2l-13-25-8-12-9-11-7-6z" fill="#0C0908"/>
<path transform="translate(910,721)" d="m0 0h15l-1 10h-15z" fill="#050303"/>
<path transform="translate(1298,721)" d="m0 0h14l-1 10h-16z" fill="#050303"/>
<path transform="translate(481,522)" d="m0 0 4 1-20 8-20 10 2-4 8-6 12-5z" fill="#141110"/>
<path transform="translate(1104,707)" d="m0 0h21l-1 5h-20z" fill="#FDFDFD"/>
<path transform="translate(998,707)" d="m0 0h21l-1 5h-20z" fill="#FDFDFD"/>
<path transform="translate(1446,537)" d="m0 0 3 3 2 7v4h-12v-3z" fill="#FDFDFD"/>
<path transform="translate(980,537)" d="m0 0 2 2 3 11-4 1h-9l1-4z" fill="#FDFDFD"/>
<path transform="translate(672,537)" d="m0 0 2 2 3 11-13 1 1-4z" fill="#FDFDFD"/>
<path transform="translate(1169,707)" d="m0 0h2l2 6v4h-9l2-5z" fill="#FDFDFD"/>
<path transform="translate(207,288)" d="m0 0m-2 1 2 1-1 3-12 9-6 4 2-4 5-5z" fill="#101010"/>
<path transform="translate(1519,176)" d="m0 0h10v3h-10z" fill="#FDFDFD"/>
</svg>
