<?xml version="1.0" standalone="no"?>
<!DOCTYPE svg PUBLIC "-//W3C//DTD SVG 20010904//EN"
 "http://www.w3.org/TR/2001/REC-SVG-20010904/DTD/svg10.dtd">
<svg version="1.0" xmlns="http://www.w3.org/2000/svg"
 width="595.000000pt" height="595.000000pt" viewBox="0 0 595.000000 595.000000"
 preserveAspectRatio="xMidYMid meet">

<g transform="translate(0.000000,595.000000) scale(0.100000,-0.100000)"
fill="#000000" stroke="none">
<path d="M2595 4044 c-672 -42 -1249 -155 -1675 -326 -521 -211 -794 -470
-793 -758 0 -521 937 -960 2288 -1072 210 -17 937 -17 1140 0 973 84 1726 324
2080 663 143 137 207 263 207 410 0 511 -900 944 -2212 1065 -166 15 -881 27
-1035 18z m950 -49 c952 -77 1712 -316 2062 -648 204 -194 251 -386 145 -592
-46 -89 -184 -229 -302 -307 -651 -431 -1968 -635 -3245 -502 -852 88 -1573
343 -1877 663 -223 234 -224 466 -4 699 188 198 524 371 971 498 366 103 879
181 1348 204 231 11 669 4 902 -15z"/>
<path d="M2188 3800 c-95 -17 -150 -41 -198 -89 -69 -66 -87 -138 -50 -199 36
-58 113 -79 337 -90 84 -4 155 -11 159 -15 19 -19 -23 -32 -112 -35 -120 -5
-180 4 -205 29 -18 18 -32 19 -137 17 l-117 -3 -3 -55 c-3 -77 19 -111 95
-141 54 -22 72 -24 258 -24 160 0 213 3 265 18 124 34 201 112 208 214 5 72
-16 104 -85 127 -48 17 -202 34 -342 39 -47 1 -76 6 -78 14 -6 18 55 26 167
21 80 -3 102 -7 112 -21 12 -15 28 -17 133 -15 l120 3 3 52 c3 45 -1 55 -28
86 -49 57 -100 69 -290 73 -91 1 -186 -1 -212 -6z"/>
<path d="M2815 3795 c-10 -8 -66 -209 -161 -573 -6 -22 -6 -22 118 -22 l124 0
20 68 19 67 175 5 c157 4 180 7 222 28 177 87 238 327 105 408 -29 17 -60 19
-321 24 -186 3 -293 1 -301 -5z m436 -228 c-8 -21 -14 -22 -135 -25 -69 -1
-126 1 -126 5 0 4 3 18 6 30 6 21 12 23 118 25 128 3 149 -2 137 -35z"/>
<path d="M3565 3788 c-18 -52 -43 -174 -37 -180 4 -4 64 -9 133 -10 l126 -3
-53 -195 c-30 -107 -54 -196 -54 -197 0 -2 56 -3 125 -3 l124 0 12 43 c7 23
31 112 54 197 l42 155 130 3 c88 2 134 7 141 15 9 10 52 162 52 181 0 3 -178
6 -395 6 -308 0 -397 -3 -400 -12z"/>
<path d="M4392 3784 c-47 -33 -13 -94 53 -94 17 0 41 7 53 16 47 33 13 94 -53
94 -17 0 -41 -7 -53 -16z m103 -40 c0 -28 -1 -29 -50 -29 -49 0 -50 1 -50 30
0 23 5 30 25 35 14 4 36 4 50 0 20 -5 25 -13 25 -36z"/>
<path d="M4410 3747 c0 -19 5 -23 35 -24 31 -1 35 2 35 23 0 21 -5 24 -35 24
-30 0 -35 -3 -35 -23z m47 7 c-3 -3 -12 -4 -19 -1 -8 3 -5 6 6 6 11 1 17 -2
13 -5z"/>
<path d="M760 3511 c-154 -50 -311 -177 -374 -303 -25 -50 -34 -98 -19 -98 4
0 23 16 43 35 28 28 58 41 155 70 66 20 125 38 132 40 7 2 45 -37 85 -88 102
-128 102 -127 91 -138 -8 -8 -70 53 -155 155 -10 12 -17 18 -18 14 0 -4 38
-53 85 -110 94 -113 91 -105 79 -250 l-7 -74 -166 -60 c-200 -71 -234 -96
-173 -128 34 -18 192 -58 315 -81 105 -19 171 -10 249 32 56 31 87 64 130 140
37 65 63 84 153 113 57 19 98 24 220 26 328 8 1783 27 2505 33 585 5 770 9
787 19 13 7 32 29 42 50 13 23 20 30 21 19 0 -31 37 -91 82 -134 124 -119 270
-127 335 -16 25 43 28 56 27 138 0 54 -7 114 -18 150 -50 169 -178 288 -311
288 -63 0 -103 -21 -175 -88 -30 -29 -66 -58 -80 -65 -20 -11 -182 -14 -785
-16 -418 -2 -1142 -6 -1610 -10 -467 -3 -872 -6 -900 -5 -112 4 -241 70 -364
185 -187 174 -249 200 -381 157z m204 -41 c15 -5 64 -47 109 -93 100 -100 151
-192 172 -312 36 -202 4 -345 -100 -452 -60 -61 -108 -78 -206 -70 -70 6 -253
46 -246 54 3 2 41 -1 86 -7 44 -7 115 -10 158 -8 70 3 84 7 135 40 103 67 148
157 148 296 0 82 -27 213 -46 225 -7 4 -27 36 -45 71 -47 92 -126 187 -179
214 -39 20 -56 23 -127 20 -116 -6 -211 -53 -310 -155 -63 -64 -73 -71 -73
-50 0 62 144 190 255 227 48 16 77 19 151 16 50 -3 103 -10 118 -16z m4103
-311 c41 -15 70 -46 114 -120 47 -81 59 -130 48 -200 -12 -73 -20 -79 -74 -50
-83 44 -151 141 -174 249 -12 59 -14 115 -4 125 10 10 58 8 90 -4z"/>
<path d="M4790 2795 c0 -10 238 -162 265 -169 15 -4 52 -2 83 5 l56 11 -36 13
c-20 6 -56 28 -80 48 -56 46 -101 65 -195 83 -82 15 -93 16 -93 9z"/>
<path d="M1488 2729 c-29 -11 -46 -45 -30 -61 5 -5 34 -12 65 -15 31 -3 54
-10 51 -15 -4 -5 -33 -6 -70 -3 -63 7 -76 1 -52 -23 18 -18 139 -15 166 4 46
32 16 64 -62 64 -27 0 -46 5 -46 11 0 8 22 9 71 4 58 -6 71 -5 67 6 -11 35
-100 50 -160 28z"/>
<path d="M1671 2718 c-4 -13 -11 -44 -15 -70 l-7 -48 30 0 c21 0 31 5 31 15 0
12 13 15 55 15 43 0 58 5 75 22 48 51 9 88 -92 88 -62 0 -69 -2 -77 -22z m129
-38 c0 -5 -18 -10 -40 -10 -22 0 -40 5 -40 10 0 6 18 10 40 10 22 0 40 -4 40
-10z"/>
<path d="M1921 2730 c-11 -8 -91 -116 -91 -123 0 -11 58 -8 65 3 3 6 24 10 46
10 21 0 39 -4 39 -10 0 -5 14 -10 30 -10 17 0 30 2 30 5 0 3 -12 34 -26 69
-23 59 -27 64 -55 62 -17 0 -34 -3 -38 -6z m31 -72 c-15 -15 -24 -6 -16 16 5
12 10 14 17 7 8 -8 8 -14 -1 -23z"/>
<path d="M2077 2733 c-4 -6 -27 -117 -27 -130 0 -2 14 -3 30 -3 20 0 30 5 30
15 0 10 10 15 29 15 16 0 31 -6 35 -15 3 -9 18 -15 36 -15 29 0 40 13 20 25
-5 3 -1 14 10 25 21 21 25 46 11 69 -10 16 -165 29 -174 14z m123 -53 c0 -5
-18 -10 -40 -10 -22 0 -40 5 -40 10 0 6 18 10 40 10 22 0 40 -4 40 -10z"/>
<path d="M2287 2726 c-3 -7 -8 -38 -12 -69 l-7 -57 86 0 c70 0 86 3 86 15 0
12 -13 15 -55 15 -30 0 -55 5 -55 10 0 6 27 10 60 10 47 0 60 3 60 15 0 12
-13 15 -55 15 -30 0 -55 5 -55 10 0 6 27 10 60 10 45 0 60 4 60 14 0 20 -15
23 -97 24 -49 0 -73 -3 -76 -12z"/>
<path d="M2577 2734 c-4 -7 -27 -118 -27 -131 0 -2 14 -3 30 -3 20 0 30 5 30
15 0 12 13 15 55 15 42 0 60 5 75 20 21 21 25 46 11 69 -10 16 -165 29 -174
15z m123 -54 c0 -5 -18 -10 -40 -10 -22 0 -40 5 -40 10 0 6 18 10 40 10 22 0
40 -4 40 -10z"/>
<path d="M2782 2678 c-26 -33 -48 -64 -50 -69 -5 -12 55 -11 63 1 3 6 24 10
46 10 21 0 39 -4 39 -10 0 -5 14 -10 31 -10 28 0 30 3 25 23 -3 13 -14 44 -25
69 -18 39 -25 45 -51 46 -26 1 -38 -8 -78 -60z m78 -6 c0 -10 -7 -19 -15 -19
-18 0 -19 9 -3 25 16 16 18 15 18 -6z"/>
<path d="M2975 2727 c-2 -7 -8 -38 -13 -69 l-9 -58 29 0 c18 0 28 5 28 15 0
10 10 15 30 15 18 0 33 -6 36 -15 4 -9 19 -15 36 -15 24 0 28 3 23 19 -3 10 1
24 10 31 24 20 19 69 -7 79 -36 13 -159 12 -163 -2z m130 -47 c-3 -5 -24 -10
-46 -10 -21 0 -39 5 -39 10 0 6 21 10 46 10 27 0 43 -4 39 -10z"/>
<path d="M3185 2732 c-3 -3 -5 -14 -5 -24 0 -13 8 -18 31 -18 l30 0 -7 -46 -7
-46 29 4 c20 2 30 9 32 23 9 62 11 65 47 65 31 0 35 3 35 25 0 25 0 25 -90 23
-49 0 -92 -3 -95 -6z"/>
<path d="M3412 2725 c-26 -11 -33 -20 -30 -37 3 -24 30 -35 91 -37 24 -1 36
-5 32 -12 -5 -7 -29 -8 -71 -4 -63 7 -76 1 -52 -23 18 -18 139 -15 166 4 46
32 16 64 -62 64 -27 0 -46 5 -46 11 0 8 22 9 71 4 58 -6 71 -5 67 6 -12 37
-105 50 -166 24z"/>
<path d="M3702 2728 c-23 -23 -13 -38 23 -38 33 0 34 -1 29 -32 -3 -18 -7 -39
-10 -45 -2 -9 7 -13 26 -13 30 0 33 5 42 65 2 14 13 21 38 25 27 4 36 10 38
28 3 21 1 22 -85 22 -56 0 -93 -4 -101 -12z"/>
<path d="M3915 2727 c-7 -19 -24 -101 -25 -114 0 -8 13 -13 30 -13 20 0 30 5
30 15 0 10 10 15 29 15 16 0 31 -6 35 -15 3 -9 18 -15 36 -15 26 0 29 3 22 16
-7 12 -4 22 9 35 21 21 24 46 9 69 -12 19 -169 25 -175 7z m125 -47 c0 -5 -18
-10 -40 -10 -22 0 -40 5 -40 10 0 6 18 10 40 10 22 0 40 -4 40 -10z"/>
<path d="M4194 2732 c-13 -9 -94 -117 -94 -125 0 -11 58 -8 65 3 3 6 21 10 40
10 19 0 37 -4 40 -10 3 -5 20 -10 36 -10 34 0 34 8 -5 90 -16 35 -27 45 -47
47 -14 1 -30 -2 -35 -5z m28 -74 c-15 -15 -24 -6 -16 16 5 12 10 14 17 7 8 -8
8 -14 -1 -23z"/>
<path d="M4347 2732 c-4 -6 -27 -117 -27 -129 0 -2 35 -3 79 -3 64 0 83 4 105
21 31 24 36 78 10 100 -18 15 -159 24 -167 11z m121 -64 c-2 -19 -10 -24 -40
-26 -35 -3 -38 -1 -38 22 0 24 4 26 41 26 36 0 40 -2 37 -22z"/>
<path d="M4561 2718 c-4 -13 -11 -44 -15 -70 l-7 -48 85 0 c70 0 86 3 86 15 0
12 -13 15 -55 15 -30 0 -55 5 -55 10 0 6 27 10 60 10 47 0 60 3 60 15 0 12
-13 15 -55 15 -30 0 -55 5 -55 10 0 6 27 10 60 10 53 0 60 2 60 20 0 18 -7 20
-80 20 -74 0 -81 -2 -89 -22z"/>
<path d="M1321 2714 c-19 -8 -32 -17 -28 -20 3 -3 22 4 44 15 44 23 34 27 -16
5z"/>
<path d="M2645 2554 c-33 -2 -152 -8 -265 -14 -250 -13 -661 -50 -950 -85
-214 -26 -293 -40 -170 -30 980 79 1662 100 2435 75 425 -14 606 -25 1265 -75
117 -9 49 3 -160 29 -580 72 -975 97 -1590 100 -278 2 -532 2 -565 0z"/>
<path d="M1138 2413 c6 -2 18 -2 25 0 6 3 1 5 -13 5 -14 0 -19 -2 -12 -5z"/>
<path d="M5063 2413 c9 -2 23 -2 30 0 6 3 -1 5 -18 5 -16 0 -22 -2 -12 -5z"/>
<path d="M1920 2214 c0 -9 5 -34 12 -55 14 -47 46 -53 77 -13 l20 26 7 -26
c10 -43 47 -34 84 18 16 25 30 49 30 55 0 22 -30 10 -52 -19 l-22 -30 -12 30
c-17 39 -37 38 -65 -2 l-23 -32 -8 32 c-6 22 -15 32 -28 32 -12 0 -20 -7 -20
-16z"/>
<path d="M2170 2214 c0 -9 5 -34 12 -55 14 -48 46 -53 76 -12 l19 26 7 -26
c11 -44 49 -36 86 17 35 52 37 66 10 66 -12 0 -26 -12 -36 -32 l-16 -32 -14
32 c-18 43 -48 42 -71 0 l-17 -33 -9 33 c-10 34 -47 47 -47 16z"/>
<path d="M2417 2223 c-2 -5 3 -29 10 -55 12 -40 18 -48 38 -48 14 0 31 11 43
27 l19 26 7 -26 c11 -44 48 -36 85 19 36 53 38 64 11 64 -12 0 -26 -13 -36
-32 l-17 -33 -14 33 c-17 42 -47 43 -69 0 l-16 -32 -14 32 c-12 29 -37 42 -47
25z"/>
<path d="M2719 2211 c-30 -25 -19 -38 42 -50 40 -7 38 -8 -28 -7 -43 0 -78 -5
-85 -12 -15 -15 17 -29 35 -14 8 7 18 7 27 2 22 -14 94 -12 115 4 24 17 13 46
-17 47 -13 0 -32 5 -43 10 -14 6 -3 7 33 3 54 -6 70 6 33 26 -31 16 -87 12
-112 -9z"/>
<path d="M2866 2219 c-2 -8 -7 -33 -10 -56 -5 -38 -4 -43 13 -43 10 0 21 7 25
15 3 10 19 15 45 15 36 0 71 19 71 38 -1 24 -24 36 -79 40 -46 3 -62 1 -65 -9z
m82 -36 c-10 -2 -26 -2 -35 0 -10 3 -2 5 17 5 19 0 27 -2 18 -5z"/>
<path d="M3027 2223 c-14 -14 -6 -33 14 -33 17 0 20 -5 17 -32 -2 -28 1 -34
20 -36 16 -3 22 2 22 16 0 36 12 52 36 52 17 0 24 6 24 20 0 18 -7 20 -63 20
-35 0 -67 -3 -70 -7z"/>
<path d="M3171 2180 c-14 -64 -15 -60 9 -60 11 0 23 7 26 15 4 8 14 15 24 15
10 0 20 -7 24 -15 7 -18 48 -20 45 -2 -1 6 4 25 11 41 13 25 12 30 -5 42 -10
8 -42 14 -71 14 l-52 0 -11 -50z m97 3 c-10 -2 -28 -2 -40 0 -13 2 -5 4 17 4
22 1 32 -1 23 -4z"/>
<path d="M3356 2181 c-20 -27 -36 -51 -36 -55 0 -10 38 -7 45 4 8 12 65 13 65
1 0 -5 38 -10 85 -10 72 -1 88 2 105 19 11 11 20 31 20 45 0 31 -31 45 -95 45
-43 0 -44 -1 -50 -37 -11 -66 -16 -71 -31 -29 -29 82 -57 86 -108 17z m59 -1
c3 -5 1 -10 -4 -10 -6 0 -11 5 -11 10 0 6 2 10 4 10 3 0 8 -4 11 -10z m183 -2
c-5 -15 -68 -24 -68 -10 0 15 13 22 43 22 18 0 27 -4 25 -12z"/>
<path d="M3666 2221 c-3 -5 -9 -30 -12 -55 l-7 -46 87 0 c70 0 86 3 86 15 0
12 -15 15 -67 17 -57 1 -60 2 -20 5 33 3 47 8 47 19 0 11 -9 13 -35 11 -20 -3
-38 0 -41 4 -3 5 16 9 41 9 33 0 45 4 43 13 -5 15 -113 22 -122 8z"/>
<path d="M3856 2209 c-51 -40 -26 -89 47 -89 42 0 92 35 65 45 -9 4 -26 1 -38
-5 -22 -12 -60 -5 -60 11 0 15 43 28 62 18 25 -14 48 -11 48 6 0 37 -82 47
-124 14z"/>
<path d="M4000 2204 c-6 -14 -10 -39 -10 -55 l0 -30 63 3 c47 2 62 7 62 18 0
10 -12 16 -40 18 -40 3 -41 4 -37 37 3 27 1 35 -12 35 -9 0 -21 -12 -26 -26z"/>
</g>
</svg>
